<?xml version="1.0" encoding="UTF-8"?>
<svg version="1.1" xmlns="http://www.w3.org/2000/svg" width="514" height="155">
<path d="M0 0 C6.93 0 13.86 0 21 0 C21 11.55 21 23.1 21 35 C23.97 33.68 26.94 32.36 30 31 C39.88155759 28.36491798 50.86532488 29.43266244 60 34 C60.33 22.78 60.66 11.56 61 0 C68.26 0 75.52 0 83 0 C83.04606203 6.67131773 83.08584315 13.34207734 83.10986328 20.01342773 C83.11988328 22.28004838 83.13350297 24.54665623 83.15087891 26.81323242 C83.17530362 30.0825518 83.18652343 33.35169936 83.1953125 36.62109375 C83.20563507 37.62458359 83.21595764 38.62807343 83.22659302 39.66197205 C83.22731332 44.24098885 83.03093787 48.33462552 81.86279297 52.77368164 C80.77238039 57.08939969 81.66918192 59.7284111 83 64 C83.28453198 67.80115919 83.23328615 71.59236445 83.1953125 75.40234375 C83.1924826 76.48004532 83.18965271 77.55774689 83.18673706 78.66810608 C83.17559193 82.09135299 83.15049756 85.51433291 83.125 88.9375 C83.11496289 91.26627225 83.10583832 93.59504862 83.09765625 95.92382812 C83.07737751 101.61606964 83.03821735 107.30773791 83 113 C76.07 113 69.14 113 62 113 C62 101.45 62 89.9 62 78 C58.7 79.32 55.4 80.64 52 82 C41.14390399 84.1712192 32.36262235 82.45420745 22 79 C22 90.22 22 101.44 22 113 C14.74 113 7.48 113 0 113 C-0.04602421 106.16796124 -0.08581686 99.33646504 -0.10986328 92.50439453 C-0.11989264 90.18243584 -0.1335194 87.86048968 -0.15087891 85.53857422 C-0.17526201 82.19235123 -0.18651404 78.84629592 -0.1953125 75.5 C-0.20563507 74.4694751 -0.21595764 73.4389502 -0.22659302 72.37719727 C-0.22727668 67.94015626 -0.13835008 63.98604971 1.13720703 59.71875 C2.16390622 55.29354284 1.3166212 53.29838098 0 49 C-0.28409194 45.19877173 -0.23328662 41.40768321 -0.1953125 37.59765625 C-0.1924826 36.51995468 -0.18965271 35.44225311 -0.18673706 34.33189392 C-0.17559193 30.90864701 -0.15049756 27.48566709 -0.125 24.0625 C-0.11496289 21.73372775 -0.10583832 19.40495138 -0.09765625 17.07617188 C-0.07737751 11.38393036 -0.03821735 5.69226209 0 0 Z M30 55 C30 55.99 30 56.98 30 58 C35.25867446 61.32126808 39.94736802 61.8819019 46 61 C48.9187789 59.91251947 51.30302836 58.59820541 54 57 C51.0587937 53.85595188 49.18592979 52.19872089 44.765625 51.796875 C39.00850202 51.68959942 35.11455824 52.33153483 30 55 Z " fill="#3D9870" transform="translate(22,13)"/>
<path d="M0 0 C1.29349365 0.00523682 2.5869873 0.01047363 3.91967773 0.01586914 C4.9496714 0.01799156 4.9496714 0.01799156 6.00047302 0.02015686 C8.20144949 0.0257706 10.40232557 0.03832532 12.60327148 0.05102539 C14.09220231 0.05603863 15.58113473 0.06060184 17.07006836 0.06469727 C20.72700223 0.07574446 24.38387707 0.09301826 28.04077148 0.11352539 C31.06194122 5.92511014 33.56301515 11.77669872 35.86108398 17.90649414 C36.20581757 18.81555008 36.55055115 19.72460602 36.9057312 20.66120911 C37.99637488 23.53966679 39.08123211 26.42026292 40.16577148 29.30102539 C41.25876463 32.19198986 42.35292668 35.08250987 43.44723511 37.97297668 C44.12498099 39.76448078 44.80172492 41.55636434 45.47732544 43.34867859 C45.93823074 44.57068718 45.93823074 44.57068718 46.40844727 45.81738281 C46.6761795 46.5282756 46.94391174 47.2391684 47.21975708 47.97160339 C48.13588525 50.3616651 49.09015021 52.73697222 50.04077148 55.11352539 C50.04077148 41.58352539 50.04077148 28.05352539 50.04077148 14.11352539 C55.98077148 14.11352539 61.92077148 14.11352539 68.04077148 14.11352539 C69.03077148 17.57852539 69.03077148 17.57852539 70.04077148 21.11352539 C70.52288086 20.69200195 71.00499023 20.27047852 71.50170898 19.83618164 C72.44916992 19.0144043 72.44916992 19.0144043 73.41577148 18.17602539 C74.04225586 17.63075195 74.66874023 17.08547852 75.31420898 16.52368164 C78.49783688 13.92347877 80.80009925 13.92349835 84.85327148 13.86352539 C85.8909668 13.83774414 86.92866211 13.81196289 87.99780273 13.78540039 C92.77085575 14.30008133 95.87536932 16.614923 99.04077148 20.11352539 C99.31920898 18.72133789 99.31920898 18.72133789 99.60327148 17.30102539 C101.54090384 13.00453625 103.80619966 12.896503 108.04077148 11.11352539 C109.03077148 9.13352539 110.02077148 7.15352539 111.04077148 5.11352539 C118.63077148 5.11352539 126.22077148 5.11352539 134.04077148 5.11352539 C132.90712041 9.6481297 131.39883774 11.01377192 128.04077148 14.11352539 C132.33077148 14.44352539 136.62077148 14.77352539 141.04077148 15.11352539 C141.04077148 20.06352539 141.04077148 25.01352539 141.04077148 30.11352539 C134.11077148 29.61852539 134.11077148 29.61852539 127.04077148 29.11352539 C127.44295898 32.51665039 127.44295898 32.51665039 127.85327148 35.98852539 C128.0040918 37.26469727 128.15491211 38.54086914 128.31030273 39.85571289 C128.7092523 43.39122855 128.7092523 43.39122855 132.04077148 45.11352539 C134.08998088 45.56491998 134.08998088 45.56491998 136.22827148 45.73852539 C137.48639648 45.86227539 138.74452148 45.98602539 140.04077148 46.11352539 C139.9004773 48.25972799 139.75338985 50.40548757 139.60327148 52.55102539 C139.48145508 54.3434668 139.48145508 54.3434668 139.35717773 56.17211914 C139.04077148 59.11352539 139.04077148 59.11352539 138.04077148 60.11352539 C134.98723673 60.39269604 131.91804443 60.34537722 128.85327148 60.36352539 C128.0018457 60.38415039 127.15041992 60.40477539 126.27319336 60.42602539 C121.10493011 60.45800227 117.48815062 60.04412862 113.04077148 57.11352539 C109.31572184 52.38170557 107.90073258 48.7189722 107.94311523 42.78540039 C107.94633789 41.98618164 107.94956055 41.18696289 107.95288086 40.36352539 C107.96125977 39.53852539 107.96963867 38.71352539 107.97827148 37.86352539 C107.9827832 37.02305664 107.98729492 36.18258789 107.99194336 35.31665039 C108.00369188 33.24891138 108.02162626 31.18120915 108.04077148 29.11352539 C105.73077148 29.44352539 103.42077148 29.77352539 101.04077148 30.11352539 C101.53577148 44.46852539 101.53577148 44.46852539 102.04077148 59.11352539 C95.44077148 59.11352539 88.84077148 59.11352539 82.04077148 59.11352539 C81.71077148 49.87352539 81.38077148 40.63352539 81.04077148 31.11352539 C75.37432333 30.44707992 75.37432333 30.44707992 73.19775391 32.76098633 C71.81083267 35.58106927 71.61251146 37.61610238 71.52905273 40.75415039 C71.47938354 42.20096191 71.47938354 42.20096191 71.42871094 43.67700195 C71.40381592 44.89355469 71.3789209 46.11010742 71.35327148 47.36352539 C71.25014648 51.24102539 71.14702148 55.11852539 71.04077148 59.11352539 C56.85077148 59.11352539 42.66077148 59.11352539 28.04077148 59.11352539 C27.05077148 55.48352539 26.06077148 51.85352539 25.04077148 48.11352539 C12.66577148 48.60852539 12.66577148 48.60852539 0.04077148 49.11352539 C-1.93922852 54.06352539 -1.93922852 54.06352539 -3.95922852 59.11352539 C-11.21922852 59.11352539 -18.47922852 59.11352539 -25.95922852 59.11352539 C-20.80771109 45.06082408 -15.59041879 31.03664999 -10.20129395 17.07327271 C-9.66451547 15.68240077 -9.12862791 14.29118468 -8.59362793 12.89962769 C-7.84208079 10.94635818 -7.08684945 8.99455809 -6.33032227 7.04321289 C-5.67954712 5.36074463 -5.67954712 5.36074463 -5.015625 3.64428711 C-3.55128719 0.13623864 -3.55128719 0.13623864 0 0 Z M12.04077148 15.11352539 C10.87138782 18.0916328 9.70572185 21.07118131 8.54077148 24.05102539 C8.2069043 24.90116211 7.87303711 25.75129883 7.52905273 26.62719727 C7.21323242 27.43608398 6.89741211 28.2449707 6.57202148 29.07836914 C6.27875977 29.82723389 5.98549805 30.57609863 5.68334961 31.34765625 C4.98377954 32.9569535 4.98377954 32.9569535 5.04077148 34.11352539 C9.66077148 34.11352539 14.28077148 34.11352539 19.04077148 34.11352539 C18.23517398 29.27994035 17.25904241 25.71328311 15.47827148 21.23852539 C14.79571289 19.50989258 14.79571289 19.50989258 14.09936523 17.74633789 C13.7500293 16.87750977 13.40069336 16.00868164 13.04077148 15.11352539 C12.71077148 15.11352539 12.38077148 15.11352539 12.04077148 15.11352539 Z " fill="#3A3A3A" transform="translate(165.959228515625,34.886474609375)"/>
<path d="M0 0 C2.39445919 1.3884418 4.56375633 2.83680198 6.71484375 4.57421875 C7.37484375 2.59421875 8.03484375 0.61421875 8.71484375 -1.42578125 C14.32484375 -1.42578125 19.93484375 -1.42578125 25.71484375 -1.42578125 C25.71484375 19.69421875 25.71484375 40.81421875 25.71484375 62.57421875 C19.11484375 62.57421875 12.51484375 62.57421875 5.71484375 62.57421875 C5.71484375 54.65421875 5.71484375 46.73421875 5.71484375 38.57421875 C3.73484375 40.22421875 1.75484375 41.87421875 -0.28515625 43.57421875 C-6.54264454 45.66004818 -13.88972028 45.70889895 -19.84765625 42.88671875 C-26.81072246 36.28073286 -29.43977881 30.78837992 -29.78515625 21.26171875 C-29.60470794 13.32983891 -27.87254307 7.98329752 -22.88671875 1.85546875 C-17.0092599 -3.51479822 -6.89908342 -2.99425143 0 0 Z M-7.22265625 14.13671875 C-9.72900322 17.09876517 -10.28515625 18.70288956 -10.28515625 22.57421875 C-8.68103777 26.10327942 -7.54356263 27.40194783 -4.28515625 29.57421875 C-1.18538207 29.37636082 1.23163114 28.77767669 4.08984375 27.57421875 C6.41005893 24.7185693 6.11053612 22.3157611 6.05078125 18.73046875 C5.82408751 16.28308176 5.82408751 16.28308176 3.71484375 13.57421875 C-1.95036693 12.17018848 -1.95036693 12.17018848 -7.22265625 14.13671875 Z " fill="#3A3A3A" transform="translate(360.28515625,50.42578125)"/>
<path d="M0 0 C1.3295874 0.01244751 1.3295874 0.01244751 2.68603516 0.02514648 C10.08431377 0.21639913 16.38114529 0.97644751 22.0390625 6.12109375 C27.81895465 12.48993225 28.1875 16.18267168 28.1875 25.4375 C16.3075 25.4375 4.4275 25.4375 -7.8125 25.4375 C-5.48998574 30.32245525 -5.48998574 30.32245525 -2.8125 31.4375 C1.98378246 32.02264646 5.19989958 32.15762531 9.1875 29.25 C12.1875 27.4375 12.1875 27.4375 14.30859375 27.734375 C16.67235282 28.51565119 18.91452828 29.42292093 21.1875 30.4375 C21.89132812 30.72882813 22.59515625 31.02015625 23.3203125 31.3203125 C24.95326451 32.0012601 26.57216545 32.71575477 28.1875 33.4375 C25.27983749 39.09128821 21.25957687 42.81842672 15.4375 45.25 C5.83967886 48.10649439 -7.87112091 48.23935173 -16.8125 43.4375 C-21.73482352 40.37472092 -24.68154635 36.10178983 -26.3984375 30.5390625 C-27.92614512 22.78522571 -27.12017392 16.41722666 -23.23046875 9.53125 C-17.69426476 1.35657965 -9.17488046 -0.10973911 0 0 Z M-6.8125 16.4375 C-6.8125 17.0975 -6.8125 17.7575 -6.8125 18.4375 C-1.2025 18.4375 4.4075 18.4375 10.1875 18.4375 C6.9792768 13.41445852 6.9792768 13.41445852 3.96875 12.84375 C-2.05937863 12.98849555 -2.05937863 12.98849555 -6.8125 16.4375 Z " fill="#393939" transform="translate(465.8125,48.5625)"/>
<path d="M0 0 C6.6 0 13.2 0 20 0 C19.93039062 2.85398438 19.93039062 2.85398438 19.859375 5.765625 C19.82185957 8.26040099 19.78545917 10.75519393 19.75 13.25 C19.71648437 14.50425781 19.68296875 15.75851563 19.6484375 17.05078125 C19.62910156 18.85869141 19.62910156 18.85869141 19.609375 20.703125 C19.5779541 22.36843262 19.5779541 22.36843262 19.54589844 24.06738281 C20.09680816 27.62519334 21.2539063 28.76701723 24 31 C27.58030855 29.34703584 27.58030855 29.34703584 29.65625 26.22729492 C30.05382366 23.65125479 30.09480437 21.22028903 30.0625 18.61328125 C30.05476563 17.59298828 30.04703125 16.57269531 30.0390625 15.52148438 C30.02617187 14.46251953 30.01328125 13.40355469 30 12.3125 C29.97461742 10.20447695 29.95354146 8.09639608 29.9375 5.98828125 C29.92589844 5.05540283 29.91429687 4.12252441 29.90234375 3.16137695 C30 1 30 1 31 0 C37.6 0 44.2 0 51 0 C51 14.85 51 29.7 51 45 C45.06 45 39.12 45 33 45 C32.34 42.69 31.68 40.38 31 38 C30.2575 38.94875 29.515 39.8975 28.75 40.875 C26.10005753 44.2610376 23.72035135 45.77651025 19.4140625 46.3359375 C13.38525465 46.42037458 9.73028325 46.13899784 5 42 C4.4225 41.566875 3.845 41.13375 3.25 40.6875 C-0.24851408 35.964506 -0.24063171 29.95864742 -0.1953125 24.31640625 C-0.1924826 23.61603745 -0.18965271 22.91566864 -0.18673706 22.19407654 C-0.17564885 19.9833683 -0.15056703 17.77308329 -0.125 15.5625 C-0.11495546 14.05274028 -0.1058322 12.54297412 -0.09765625 11.03320312 C-0.07745843 7.35517927 -0.03829093 3.67805664 0 0 Z " fill="#3A3A3A" transform="translate(387,49)"/>
<path d="M0 0 C0.66 0 1.32 0 2 0 C2.45439453 0.88751953 2.45439453 0.88751953 2.91796875 1.79296875 C6.84129759 9.19297053 12.32551995 16.16275997 20 20 C20 31.88 20 43.76 20 56 C12.74 56 5.48 56 -2 56 C-2.04599264 49.14965178 -2.08579477 42.29984266 -2.10986328 35.44946289 C-2.11990049 33.12066835 -2.13353314 30.79188634 -2.15087891 28.46313477 C-2.17522727 25.10950621 -2.18650615 21.75604479 -2.1953125 18.40234375 C-2.20563507 17.36665756 -2.21595764 16.33097137 -2.22659302 15.26390076 C-2.2274396 9.76903406 -1.83946576 5.1906032 0 0 Z " fill="#3A3A3A" transform="translate(24,70)"/>
<path d="M0 0 C0.66 0 1.32 0 2 0 C4.19433666 6.19197766 4.26038968 11.87300736 4.1953125 18.40234375 C4.1924826 19.48004532 4.18965271 20.55774689 4.18673706 21.66810608 C4.17559193 25.09135299 4.15049756 28.51433291 4.125 31.9375 C4.11496289 34.26627225 4.10583832 36.59504862 4.09765625 38.92382812 C4.07737751 44.61606964 4.03821735 50.30773791 4 56 C-2.93 56 -9.86 56 -17 56 C-17.27798339 51.06579486 -17.51554257 46.15923889 -17.65917969 41.22338867 C-17.71905493 39.55154966 -17.8006025 37.88032647 -17.90527344 36.21069336 C-18.80061748 21.54724022 -18.80061748 21.54724022 -14.38964844 16.55981445 C-12.35302294 14.60138582 -10.20158995 12.9122012 -7.91601562 11.25585938 C-3.92197134 8.16602605 -1.94643602 4.58317784 0 0 Z " fill="#3A3A3A" transform="translate(101,70)"/>
<path d="M0 0 C6.93 0 13.86 0 21 0 C21 14.85 21 29.7 21 45 C14.07 45 7.14 45 0 45 C0 30.15 0 15.3 0 0 Z " fill="#3A3A3A" transform="translate(308,49)"/>
<path d="M0 0 C0.54356922 7.23249046 -0.27863863 12.69813257 -4 19 C-4.66 19.66 -5.32 20.32 -6 21 C-8.59857578 20.72646571 -10.57061908 20.23674461 -12.86328125 18.97265625 C-17.16672514 17.01368453 -22.62457237 17.18274513 -27.06640625 18.7109375 C-27.66324219 18.99195312 -28.26007812 19.27296875 -28.875 19.5625 C-32 21 -32 21 -34.1875 21.0625 C-37.52160927 19.10802215 -39.42894302 15.75343779 -40.609375 12.12890625 C-41.06809352 9.62889034 -41.09592614 7.29038693 -41.0625 4.75 C-41.05347656 3.85796875 -41.04445312 2.9659375 -41.03515625 2.046875 C-41.02355469 1.37140625 -41.01195312 0.6959375 -41 0 C-27.37444352 -6.5099881 -13.61741114 -7.11819219 0 0 Z " fill="#393B3A" transform="translate(84,48)"/>
<path d="M0 0 C2.24100279 3.29147285 2.76823839 5.09286908 2.46484375 9 C1.57669832 12.70184984 0.19255488 13.93432831 -3 15.9375 C-8.33970525 16.91417772 -12.50471846 16.84639662 -17.1875 14 C-19.61698322 9.89501111 -19.94977266 6.59922821 -19 1.9375 C-17.24725883 -0.56641596 -15.98549952 -1.60494665 -13.25 -2.875 C-7.95264514 -3.31644624 -4.34905657 -2.98997639 0 0 Z " fill="#393939" transform="translate(327,29.0625)"/>
<path d="M0 0 C6.93 0 13.86 0 21 0 C21 14.85 21 29.7 21 45 C20.67 45 20.34 45 20 45 C19.505 24.21 19.505 24.21 19 3 C12.88867523 1.60776773 12.88867523 1.60776773 2 2 C1.67 17.51 1.34 33.02 1 49 C0.67 49 0.34 49 0 49 C0 32.83 0 16.66 0 0 Z " fill="#549177" transform="translate(22,13)"/>
<path d="M0 0 C2.97 0.33 5.94 0.66 9 1 C9 1.33 9 1.66 9 2 C7.02 2 5.04 2 3 2 C2.98018066 2.89307861 2.96036133 3.78615723 2.93994141 4.70629883 C2.86181302 8.02200708 2.77512029 11.33726162 2.68261719 14.65258789 C2.64435134 16.08707068 2.60949419 17.52164865 2.578125 18.95629883 C2.53242138 21.01938878 2.47443807 23.08182495 2.4140625 25.14453125 C2.3826416 26.38565674 2.3512207 27.62678223 2.31884766 28.90551758 C2 32 2 32 0 35 C0 23.45 0 11.9 0 0 Z " fill="#45886A" transform="translate(83,13)"/>
<path d="M0 0 C0.66 0 1.32 0 2 0 C2.33 2.64 2.66 5.28 3 8 C2.01 8 1.02 8 0 8 C-1.60515371 9.09969503 -1.60515371 9.09969503 -3.13671875 10.625 C-3.71357422 11.16640625 -4.29042969 11.7078125 -4.88476562 12.265625 C-5.77711914 13.12414062 -5.77711914 13.12414062 -6.6875 14 C-7.29400391 14.57234375 -7.90050781 15.1446875 -8.52539062 15.734375 C-10.02320629 17.1496339 -11.5124329 18.57397277 -13 20 C-13.99 19.67 -14.98 19.34 -16 19 C-15.02160156 18.19949219 -15.02160156 18.19949219 -14.0234375 17.3828125 C-8.49853867 12.67279551 -4.53138059 8.31720072 -1.15625 1.87109375 C-0.7746875 1.25363281 -0.393125 0.63617188 0 0 Z " fill="#31443A" transform="translate(101,70)"/>
<path d="M0 0 C6.27 0 12.54 0 19 0 C19 0.33 19 0.66 19 1 C18.25234375 1.01417969 17.5046875 1.02835938 16.734375 1.04296875 C10.40090569 1.18275622 10.40090569 1.18275622 5.3125 4.5625 C4.879375 5.366875 4.44625 6.17125 4 7 C3.01 6.34 2.02 5.68 1 5 C0.67 3.35 0.34 1.7 0 0 Z " fill="#343434" transform="translate(456,49)"/>
<path d="M0 0 C0.66 0 1.32 0 2 0 C2.32613281 0.59167969 2.65226562 1.18335937 2.98828125 1.79296875 C5.2613675 5.90329876 7.54495799 9.99440514 10 14 C6.68512375 12.89504125 6.03716235 12.09564032 3.9375 9.4375 C2.47246535 7.5289778 2.47246535 7.5289778 1 6 C0.34 6 -0.32 6 -1 6 C-0.67 4.02 -0.34 2.04 0 0 Z " fill="#304338" transform="translate(24,70)"/>
<path d="M0 0 C6.6 0 13.2 0 20 0 C20 3.96 20 7.92 20 12 C19.67 12 19.34 12 19 12 C18.34 8.7 17.68 5.4 17 2 C15.494375 2.020625 13.98875 2.04125 12.4375 2.0625 C8.17479779 2.06856359 4.19470805 1.72951444 0 1 C0 0.67 0 0.34 0 0 Z " fill="#519176" transform="translate(85,13)"/>
<path d="M0 0 C-4.79813482 3.69087294 -9.05925113 4.99667352 -15 6 C-14.67 5.01 -14.34 4.02 -14 3 C-11 2 -11 2 -8 3 C-7.67 2.01 -7.34 1.02 -7 0 C-2.25 -1.125 -2.25 -1.125 0 0 Z " fill="#488C6F" transform="translate(86,89)"/>
<path d="M0 0 C0.33 0 0.66 0 1 0 C1.08333357 4.8333472 0.95261487 9.23692563 0 14 C-0.66 14 -1.32 14 -2 14 C-2.66 15.65 -3.32 17.3 -4 19 C-4.66 19 -5.32 19 -6 19 C-4.88321734 16.16509016 -3.71836556 13.39166961 -2.4375 10.625 C-1.00692105 7.01745308 -0.39247893 3.8462935 0 0 Z " fill="#488E6F" transform="translate(84,51)"/>
<path d="M0 0 C0.66 0 1.32 0 2 0 C1.55074862 4.82945236 0.45263456 7.54736544 -3 11 C-3.99 11 -4.98 11 -6 11 C-6 10.34 -6 9.68 -6 9 C-5.071875 8.38125 -5.071875 8.38125 -4.125 7.75 C-1.37883708 5.48845406 -0.90113361 3.37925104 0 0 Z " fill="#2C443A" transform="translate(81,58)"/>
<path d="M0 0 C3.875 1.75 3.875 1.75 5 4 C6.65 4 8.3 4 10 4 C8.75 5.5625 8.75 5.5625 7 7 C5 6.9375 5 6.9375 3 6 C0 2.67857143 0 2.67857143 0 0 Z " fill="#2F4339" transform="translate(45,62)"/>
<path d="M0 0 C0.391875 0.556875 0.78375 1.11375 1.1875 1.6875 C3.02737419 4.14917817 3.02737419 4.14917817 5.6875 6.5625 C8 9 8 9 8 12 C7.67 11.34 7.34 10.68 7 10 C6.071875 9.8453125 6.071875 9.8453125 5.125 9.6875 C3 9 3 9 1.25 6.6875 C0 4 0 4 0 0 Z " fill="#49896D" transform="translate(43,60)"/>
<path d="M0 0 C0.66 0 1.32 0 2 0 C4.5393228 3.41831915 5.3636198 5.75776898 5 10 C3 9 3 9 2.1484375 6.93359375 C1.89320312 6.10988281 1.63796875 5.28617187 1.375 4.4375 C1.11460938 3.61121094 0.85421875 2.78492187 0.5859375 1.93359375 C0.39257812 1.29550781 0.19921875 0.65742187 0 0 Z " fill="#478E70" transform="translate(23,64)"/>
<path d="M0 0 C2 3 2 3 2 5 C3.32 5.66 4.64 6.32 6 7 C3.69 7 1.38 7 -1 7 C-0.67 4.69 -0.34 2.38 0 0 Z " fill="#333333" transform="translate(309,87)"/>
<path d="M0 0 C2.97 0.495 2.97 0.495 6 1 C6 1.99 6 2.98 6 4 C4 4 2 4 0 4 C0 2.68 0 1.36 0 0 Z " fill="#323232" transform="translate(254,49)"/>
<path d="M0 0 C1.98 0.66 3.96 1.32 6 2 C5.34 3.32 4.68 4.64 4 6 C2.62437146 4.71034824 1.29233607 3.37310707 0 2 C0 1.34 0 0.68 0 0 Z " fill="#2F2F2F" transform="translate(488,80)"/>
</svg>
